<mxfile host="app.diagrams.net" modified="2021-03-26T03:28:47.228Z" agent="5.0 (Windows NT 10.0; Win64; x64) AppleWebKit/537.36 (KHTML, like Gecko) Chrome/89.0.4389.90 Safari/537.36" etag="eN_MDy6rUR4lKnhuBwFE" version="14.5.1" type="github">
  <diagram id="VWFQYdNJJLXw5zWF9g6I" name="第 1 页">
    <mxGraphModel dx="1730" dy="967" grid="1" gridSize="10" guides="1" tooltips="1" connect="1" arrows="1" fold="1" page="1" pageScale="1" pageWidth="1169" pageHeight="827" math="0" shadow="0">
      <root>
        <mxCell id="0" />
        <mxCell id="1" parent="0" />
        <mxCell id="Kit9_HDKUx18gntkOTAz-4" value="展&lt;br&gt;现&lt;br&gt;层" style="rounded=1;whiteSpace=wrap;html=1;shadow=0;glass=0;dashed=1;labelBackgroundColor=#FFFFFF;sketch=0;strokeWidth=3;fontSize=32;fillColor=none;strokeColor=#009900;fontStyle=1" parent="1" vertex="1">
          <mxGeometry x="90" y="75" width="80" height="170" as="geometry" />
        </mxCell>
        <mxCell id="PtlmvL8tsxnb0MDoWB0_-4" value="" style="rounded=1;whiteSpace=wrap;html=1;fontSize=15;dashed=1;strokeWidth=3;fillColor=none;strokeColor=#009900;" parent="1" vertex="1">
          <mxGeometry x="210" y="75" width="285" height="170" as="geometry" />
        </mxCell>
        <mxCell id="PtlmvL8tsxnb0MDoWB0_-2" value="WEB" style="text;html=1;strokeColor=none;fillColor=none;align=center;verticalAlign=middle;whiteSpace=wrap;rounded=0;fontSize=20;fontStyle=1;fontColor=#FF0000;" parent="1" vertex="1">
          <mxGeometry x="317.5" y="95" width="70" height="20" as="geometry" />
        </mxCell>
        <mxCell id="PtlmvL8tsxnb0MDoWB0_-3" value="HTML5" style="rounded=1;whiteSpace=wrap;html=1;fontSize=18;fillColor=#009900;fontColor=#FFFFFF;strokeColor=#009900;" parent="1" vertex="1">
          <mxGeometry x="240" y="125" width="100" height="40" as="geometry" />
        </mxCell>
        <mxCell id="PtlmvL8tsxnb0MDoWB0_-5" value="koa-grace" style="rounded=1;whiteSpace=wrap;html=1;fontSize=18;fillColor=#009900;fontColor=#FFFFFF;strokeColor=#009900;" parent="1" vertex="1">
          <mxGeometry x="370" y="125" width="100" height="40" as="geometry" />
        </mxCell>
        <mxCell id="PtlmvL8tsxnb0MDoWB0_-6" value="ElementUI" style="rounded=1;whiteSpace=wrap;html=1;fontSize=18;fillColor=#009900;fontColor=#FFFFFF;strokeColor=#009900;" parent="1" vertex="1">
          <mxGeometry x="240" y="175" width="100" height="40" as="geometry" />
        </mxCell>
        <mxCell id="PtlmvL8tsxnb0MDoWB0_-7" value="Vue.js" style="rounded=1;whiteSpace=wrap;html=1;fontSize=18;fillColor=#009900;fontColor=#FFFFFF;strokeColor=#009900;" parent="1" vertex="1">
          <mxGeometry x="370" y="175" width="100" height="40" as="geometry" />
        </mxCell>
        <mxCell id="PtlmvL8tsxnb0MDoWB0_-8" value="" style="rounded=1;whiteSpace=wrap;html=1;fontSize=15;strokeColor=#009900;strokeWidth=3;dashed=1;" parent="1" vertex="1">
          <mxGeometry x="549" y="75" width="285" height="170" as="geometry" />
        </mxCell>
        <mxCell id="PtlmvL8tsxnb0MDoWB0_-9" value="TEMPLATE" style="text;html=1;strokeColor=none;fillColor=none;align=center;verticalAlign=middle;whiteSpace=wrap;rounded=0;fontSize=20;fontStyle=1;fontColor=#FF0000;" parent="1" vertex="1">
          <mxGeometry x="626" y="95" width="131" height="20" as="geometry" />
        </mxCell>
        <mxCell id="PtlmvL8tsxnb0MDoWB0_-10" value="canvas" style="rounded=1;whiteSpace=wrap;html=1;fontSize=18;fillColor=#009900;fontColor=#FFFFFF;strokeColor=#009900;" parent="1" vertex="1">
          <mxGeometry x="579" y="125" width="100" height="40" as="geometry" />
        </mxCell>
        <mxCell id="PtlmvL8tsxnb0MDoWB0_-11" value="webaudio" style="rounded=1;whiteSpace=wrap;html=1;fontSize=18;fillColor=#009900;fontColor=#FFFFFF;strokeColor=#009900;" parent="1" vertex="1">
          <mxGeometry x="709" y="125" width="100" height="40" as="geometry" />
        </mxCell>
        <mxCell id="PtlmvL8tsxnb0MDoWB0_-12" value="wavesuffer" style="rounded=1;whiteSpace=wrap;html=1;fontSize=17;fillColor=#009900;fontColor=#FFFFFF;strokeColor=#009900;" parent="1" vertex="1">
          <mxGeometry x="626" y="175" width="134" height="40" as="geometry" />
        </mxCell>
        <mxCell id="PtlmvL8tsxnb0MDoWB0_-14" value="" style="rounded=1;whiteSpace=wrap;html=1;fontSize=15;strokeWidth=3;dashed=1;fillColor=none;strokeColor=#009900;labelBackgroundColor=#FFFFFF;" parent="1" vertex="1">
          <mxGeometry x="885" y="75" width="285" height="170" as="geometry" />
        </mxCell>
        <mxCell id="PtlmvL8tsxnb0MDoWB0_-15" value="Restful API" style="text;html=1;strokeColor=none;fillColor=none;align=center;verticalAlign=middle;whiteSpace=wrap;rounded=0;fontSize=25;fontStyle=1;fontColor=#FF0000;" parent="1" vertex="1">
          <mxGeometry x="948.75" y="150" width="157.5" height="20" as="geometry" />
        </mxCell>
        <mxCell id="PtlmvL8tsxnb0MDoWB0_-20" value="" style="rounded=1;whiteSpace=wrap;html=1;fontSize=15;dashed=1;strokeWidth=3;strokeColor=#FF0080;" parent="1" vertex="1">
          <mxGeometry x="210.25" y="278" width="962.5" height="140" as="geometry" />
        </mxCell>
        <mxCell id="PtlmvL8tsxnb0MDoWB0_-21" value="Dubbo + Nacos" style="rounded=1;whiteSpace=wrap;html=1;fontSize=18;fontStyle=1;fillColor=#FF0080;strokeColor=none;fontColor=#FFFFFF;" parent="1" vertex="1">
          <mxGeometry x="290" y="318" width="180" height="60" as="geometry" />
        </mxCell>
        <mxCell id="PtlmvL8tsxnb0MDoWB0_-22" value="SOCKET" style="rounded=1;whiteSpace=wrap;html=1;fontSize=18;fontStyle=1;fillColor=#FF0080;strokeColor=none;fontColor=#FFFFFF;" parent="1" vertex="1">
          <mxGeometry x="598.75" y="318" width="180" height="60" as="geometry" />
        </mxCell>
        <mxCell id="PtlmvL8tsxnb0MDoWB0_-23" value="HTTP / HTTPS" style="rounded=1;whiteSpace=wrap;html=1;fontSize=18;fontStyle=1;fillColor=#FF0080;strokeColor=none;fontColor=#FFFFFF;" parent="1" vertex="1">
          <mxGeometry x="900" y="318" width="180" height="60" as="geometry" />
        </mxCell>
        <mxCell id="PtlmvL8tsxnb0MDoWB0_-27" value="" style="rounded=0;whiteSpace=wrap;fontSize=32;spacing=2;html=1;glass=0;dashed=1;strokeWidth=3;strokeColor=#0000FF;" parent="1" vertex="1">
          <mxGeometry x="210.75" y="450" width="962" height="480" as="geometry" />
        </mxCell>
        <mxCell id="PtlmvL8tsxnb0MDoWB0_-28" value="" style="rounded=1;whiteSpace=wrap;html=1;glass=0;fontSize=32;strokeWidth=2;dashed=1;strokeColor=#3333FF;" parent="1" vertex="1">
          <mxGeometry x="243" y="484" width="157" height="216" as="geometry" />
        </mxCell>
        <mxCell id="PtlmvL8tsxnb0MDoWB0_-29" value="安全 &amp;amp; 保护" style="text;html=1;strokeColor=none;fillColor=none;align=center;verticalAlign=middle;whiteSpace=wrap;rounded=0;fontSize=20;fontStyle=1;fontColor=#FF0000;" parent="1" vertex="1">
          <mxGeometry x="266.5" y="499.5" width="110" height="20" as="geometry" />
        </mxCell>
        <mxCell id="PtlmvL8tsxnb0MDoWB0_-30" value="Auth2 + Ldap" style="rounded=1;whiteSpace=wrap;html=1;fontSize=16;fillColor=#3333FF;strokeColor=none;fontColor=#FFFFFF;" parent="1" vertex="1">
          <mxGeometry x="262.25" y="531" width="117.75" height="40" as="geometry" />
        </mxCell>
        <mxCell id="PtlmvL8tsxnb0MDoWB0_-33" value="" style="rounded=1;whiteSpace=wrap;html=1;glass=0;fontSize=32;strokeWidth=2;dashed=1;strokeColor=#3333FF;" parent="1" vertex="1">
          <mxGeometry x="970" y="480" width="173" height="220" as="geometry" />
        </mxCell>
        <mxCell id="PtlmvL8tsxnb0MDoWB0_-34" value="治理 &amp;amp; 配置" style="text;html=1;strokeColor=none;fillColor=none;align=center;verticalAlign=middle;whiteSpace=wrap;rounded=0;fontSize=20;fontStyle=1;fontColor=#FF0000;" parent="1" vertex="1">
          <mxGeometry x="998" y="499.5" width="117" height="20" as="geometry" />
        </mxCell>
        <mxCell id="PtlmvL8tsxnb0MDoWB0_-35" value="Config" style="rounded=1;whiteSpace=wrap;html=1;fontSize=16;fontColor=#FFFFFF;strokeColor=none;fillColor=#3333FF;" parent="1" vertex="1">
          <mxGeometry x="1000.25" y="531" width="112.5" height="40" as="geometry" />
        </mxCell>
        <mxCell id="PtlmvL8tsxnb0MDoWB0_-36" value="Dubbo" style="rounded=1;whiteSpace=wrap;html=1;fontSize=16;fontColor=#FFFFFF;strokeColor=none;fillColor=#3333FF;" parent="1" vertex="1">
          <mxGeometry x="1000.25" y="586" width="112.5" height="40" as="geometry" />
        </mxCell>
        <mxCell id="PtlmvL8tsxnb0MDoWB0_-37" value="Nacos" style="rounded=1;whiteSpace=wrap;html=1;fontSize=16;fontColor=#FFFFFF;strokeColor=none;fillColor=#3333FF;" parent="1" vertex="1">
          <mxGeometry x="1000.25" y="639" width="112.5" height="40" as="geometry" />
        </mxCell>
        <mxCell id="PtlmvL8tsxnb0MDoWB0_-38" value="Jwt鉴权" style="rounded=1;whiteSpace=wrap;html=1;fontSize=16;fillColor=#3333FF;strokeColor=none;fontColor=#FFFFFF;" parent="1" vertex="1">
          <mxGeometry x="262.25" y="586" width="118.5" height="40" as="geometry" />
        </mxCell>
        <mxCell id="PtlmvL8tsxnb0MDoWB0_-39" value="Shiro" style="rounded=1;whiteSpace=wrap;html=1;fontSize=16;fillColor=#3333FF;strokeColor=none;fontColor=#FFFFFF;" parent="1" vertex="1">
          <mxGeometry x="262.25" y="641.5" width="117.75" height="40" as="geometry" />
        </mxCell>
        <mxCell id="PtlmvL8tsxnb0MDoWB0_-40" value="" style="rounded=1;whiteSpace=wrap;html=1;glass=0;fontSize=32;strokeWidth=2;dashed=1;strokeColor=#3333FF;" parent="1" vertex="1">
          <mxGeometry x="430" y="484" width="510" height="60" as="geometry" />
        </mxCell>
        <mxCell id="PtlmvL8tsxnb0MDoWB0_-41" value="template" style="rounded=1;whiteSpace=wrap;html=1;fontSize=18;fillColor=#3333FF;strokeColor=none;fontStyle=1;fontColor=#FFFFFF;" parent="1" vertex="1">
          <mxGeometry x="523" y="494" width="100" height="40" as="geometry" />
        </mxCell>
        <mxCell id="PtlmvL8tsxnb0MDoWB0_-42" value="html" style="rounded=1;whiteSpace=wrap;html=1;fontSize=18;fillColor=#3333FF;strokeColor=none;fontStyle=1;fontColor=#FFFFFF;" parent="1" vertex="1">
          <mxGeometry x="737" y="494" width="100" height="40" as="geometry" />
        </mxCell>
        <mxCell id="PtlmvL8tsxnb0MDoWB0_-43" value="" style="rounded=1;whiteSpace=wrap;html=1;glass=0;fontSize=32;strokeWidth=2;dashed=1;strokeColor=#3333FF;" parent="1" vertex="1">
          <mxGeometry x="430" y="560" width="520" height="140" as="geometry" />
        </mxCell>
        <mxCell id="PtlmvL8tsxnb0MDoWB0_-44" value="业务集群" style="text;html=1;strokeColor=none;fillColor=none;align=center;verticalAlign=middle;whiteSpace=wrap;rounded=0;fontSize=20;fontStyle=1;fontColor=#FF0000;" parent="1" vertex="1">
          <mxGeometry x="640" y="566" width="90" height="20" as="geometry" />
        </mxCell>
        <mxCell id="PtlmvL8tsxnb0MDoWB0_-45" value="任务处理" style="rounded=1;whiteSpace=wrap;html=1;fontSize=18;fillColor=#3333FF;strokeColor=none;fontStyle=1;fontColor=#FFFFFF;" parent="1" vertex="1">
          <mxGeometry x="470" y="595" width="120" height="40" as="geometry" />
        </mxCell>
        <mxCell id="PtlmvL8tsxnb0MDoWB0_-46" value="后台管理" style="rounded=1;whiteSpace=wrap;html=1;fontSize=18;fillColor=#3333FF;strokeColor=none;fontStyle=1;fontColor=#FFFFFF;" parent="1" vertex="1">
          <mxGeometry x="628.75" y="595" width="120" height="40" as="geometry" />
        </mxCell>
        <mxCell id="PtlmvL8tsxnb0MDoWB0_-47" value="文件服务" style="rounded=1;whiteSpace=wrap;html=1;fontSize=18;fillColor=#3333FF;strokeColor=none;fontStyle=1;fontColor=#FFFFFF;" parent="1" vertex="1">
          <mxGeometry x="784" y="595" width="120" height="40" as="geometry" />
        </mxCell>
        <mxCell id="PtlmvL8tsxnb0MDoWB0_-48" value="标注队列" style="rounded=1;whiteSpace=wrap;html=1;fontSize=18;strokeColor=none;fillColor=#3333FF;fontStyle=1;fontColor=#FFFFFF;" parent="1" vertex="1">
          <mxGeometry x="470" y="644" width="120" height="40" as="geometry" />
        </mxCell>
        <mxCell id="PtlmvL8tsxnb0MDoWB0_-49" value="统计服务" style="rounded=1;whiteSpace=wrap;html=1;fontSize=18;fillColor=#3333FF;strokeColor=none;fontStyle=1;fontColor=#FFFFFF;" parent="1" vertex="1">
          <mxGeometry x="628.75" y="644" width="120" height="40" as="geometry" />
        </mxCell>
        <mxCell id="PtlmvL8tsxnb0MDoWB0_-50" value="数据处理服务" style="rounded=1;whiteSpace=wrap;html=1;fontSize=18;fillColor=#3333FF;strokeColor=none;fontStyle=1;fontColor=#FFFFFF;" parent="1" vertex="1">
          <mxGeometry x="784" y="644" width="120" height="40" as="geometry" />
        </mxCell>
        <mxCell id="PtlmvL8tsxnb0MDoWB0_-51" value="" style="rounded=1;whiteSpace=wrap;html=1;glass=0;fontSize=32;strokeWidth=2;dashed=1;strokeColor=#3333FF;" parent="1" vertex="1">
          <mxGeometry x="243" y="725" width="900" height="75" as="geometry" />
        </mxCell>
        <mxCell id="PtlmvL8tsxnb0MDoWB0_-52" value="JPA" style="rounded=1;whiteSpace=wrap;html=1;fontSize=18;fillColor=#3333FF;strokeColor=none;fontStyle=1;fontColor=#FFFFFF;" parent="1" vertex="1">
          <mxGeometry x="267" y="742.5" width="200" height="40" as="geometry" />
        </mxCell>
        <mxCell id="PtlmvL8tsxnb0MDoWB0_-53" value="swagger" style="rounded=1;whiteSpace=wrap;html=1;fontSize=18;fillColor=#3333FF;strokeColor=none;fontStyle=1;fontColor=#FFFFFF;" parent="1" vertex="1">
          <mxGeometry x="486" y="742.5" width="200" height="40" as="geometry" />
        </mxCell>
        <mxCell id="PtlmvL8tsxnb0MDoWB0_-54" value="Spring Cloud Alibaba" style="rounded=1;whiteSpace=wrap;html=1;fontSize=18;fillColor=#3333FF;strokeColor=none;fontStyle=1;fontColor=#FFFFFF;" parent="1" vertex="1">
          <mxGeometry x="709" y="742.5" width="200" height="40" as="geometry" />
        </mxCell>
        <mxCell id="PtlmvL8tsxnb0MDoWB0_-55" value="Docker" style="rounded=1;whiteSpace=wrap;html=1;fontSize=18;fillColor=#3333FF;strokeColor=none;fontStyle=1;fontColor=#FFFFFF;" parent="1" vertex="1">
          <mxGeometry x="927.5" y="742.5" width="200" height="40" as="geometry" />
        </mxCell>
        <mxCell id="PtlmvL8tsxnb0MDoWB0_-56" value="" style="rounded=1;whiteSpace=wrap;html=1;glass=0;fontSize=32;strokeWidth=2;dashed=1;strokeColor=#3333FF;" parent="1" vertex="1">
          <mxGeometry x="243" y="820" width="900" height="85" as="geometry" />
        </mxCell>
        <mxCell id="PtlmvL8tsxnb0MDoWB0_-57" value="Spring Cloud Alibaba Seata" style="rounded=1;whiteSpace=wrap;html=1;fontSize=18;fillColor=#3333FF;strokeColor=none;fontStyle=1;fontColor=#FFFFFF;" parent="1" vertex="1">
          <mxGeometry x="267" y="840" width="200" height="45" as="geometry" />
        </mxCell>
        <mxCell id="PtlmvL8tsxnb0MDoWB0_-61" value="Spring Cloud Alibaba Nacos" style="rounded=1;whiteSpace=wrap;html=1;fontSize=18;fillColor=#3333FF;strokeColor=none;fontStyle=1;fontColor=#FFFFFF;" parent="1" vertex="1">
          <mxGeometry x="486" y="840" width="200" height="45" as="geometry" />
        </mxCell>
        <mxCell id="PtlmvL8tsxnb0MDoWB0_-62" value="Spring Cloud Alibaba Actuator" style="rounded=1;whiteSpace=wrap;html=1;fontSize=18;fillColor=#3333FF;strokeColor=none;fontStyle=1;fontColor=#FFFFFF;" parent="1" vertex="1">
          <mxGeometry x="704" y="840" width="200" height="45" as="geometry" />
        </mxCell>
        <mxCell id="PtlmvL8tsxnb0MDoWB0_-63" value="Spring Cloud Alibaba Sentinel" style="rounded=1;whiteSpace=wrap;html=1;fontSize=18;fontColor=#FFFFFF;fontStyle=1;strokeColor=none;fillColor=#3333FF;" parent="1" vertex="1">
          <mxGeometry x="923" y="840" width="200" height="45" as="geometry" />
        </mxCell>
        <mxCell id="PtlmvL8tsxnb0MDoWB0_-66" value="" style="rounded=0;whiteSpace=wrap;fontSize=32;spacing=2;html=1;glass=0;strokeWidth=3;dashed=1;strokeColor=#CC6600;shadow=0;sketch=0;" parent="1" vertex="1">
          <mxGeometry x="210.75" y="960" width="962" height="190" as="geometry" />
        </mxCell>
        <mxCell id="PtlmvL8tsxnb0MDoWB0_-67" value="Redis" style="shape=image;html=1;verticalAlign=top;verticalLabelPosition=bottom;labelBackgroundColor=#ffffff;imageAspect=0;aspect=fixed;image=https://cdn4.iconfinder.com/data/icons/redis-2/1451/Untitled-2-128.png;rounded=0;glass=0;fontSize=20;fontStyle=1" parent="1" vertex="1">
          <mxGeometry x="279.5" y="1000" width="100" height="100" as="geometry" />
        </mxCell>
        <mxCell id="PtlmvL8tsxnb0MDoWB0_-68" value="MongoDB" style="dashed=0;outlineConnect=0;html=1;align=center;labelPosition=center;verticalLabelPosition=bottom;verticalAlign=top;shape=mxgraph.webicons.mongodb;gradientColor=#DFDEDE;rounded=0;glass=0;fontSize=20;fontStyle=1" parent="1" vertex="1">
          <mxGeometry x="459.5" y="1000" width="100" height="100" as="geometry" />
        </mxCell>
        <mxCell id="PtlmvL8tsxnb0MDoWB0_-69" value="&lt;font style=&quot;font-size: 20px&quot;&gt;&lt;b&gt;MySQL&lt;/b&gt;&lt;/font&gt;" style="shape=image;html=1;verticalAlign=top;verticalLabelPosition=bottom;labelBackgroundColor=#ffffff;imageAspect=0;aspect=fixed;image=https://cdn4.iconfinder.com/data/icons/logos-3/181/MySQL-128.png;rounded=0;glass=0;fontSize=15;" parent="1" vertex="1">
          <mxGeometry x="636.5" y="1000" width="100" height="100" as="geometry" />
        </mxCell>
        <mxCell id="PtlmvL8tsxnb0MDoWB0_-70" value="Ceph" style="pointerEvents=1;shadow=0;dashed=0;html=1;strokeColor=none;fillColor=#DF8C42;labelPosition=center;verticalLabelPosition=bottom;verticalAlign=top;align=center;outlineConnect=0;shape=mxgraph.veeam2.aws_s3;rounded=0;glass=0;fontSize=20;fontStyle=1" parent="1" vertex="1">
          <mxGeometry x="819.5" y="1000" width="100" height="100" as="geometry" />
        </mxCell>
        <mxCell id="PtlmvL8tsxnb0MDoWB0_-74" value="" style="rounded=0;whiteSpace=wrap;html=1;glass=0;fontSize=15;fontColor=#66FF66;strokeWidth=3;dashed=1;fillColor=none;strokeColor=#378F99;" parent="1" vertex="1">
          <mxGeometry x="1210" y="75" width="250" height="1080" as="geometry" />
        </mxCell>
        <mxCell id="PtlmvL8tsxnb0MDoWB0_-76" value="登录验证" style="rounded=1;whiteSpace=wrap;html=1;glass=0;fontSize=18;fontStyle=1;strokeColor=none;fontColor=#FFFFFF;fillColor=#378F99;" parent="1" vertex="1">
          <mxGeometry x="1234.5" y="119.5" width="200" height="65" as="geometry" />
        </mxCell>
        <mxCell id="PtlmvL8tsxnb0MDoWB0_-77" value="权限验证" style="rounded=1;whiteSpace=wrap;html=1;glass=0;fontSize=18;fontStyle=1;strokeColor=none;fontColor=#FFFFFF;fillColor=#378F99;" parent="1" vertex="1">
          <mxGeometry x="1234.5" y="222.5" width="200" height="65" as="geometry" />
        </mxCell>
        <mxCell id="PtlmvL8tsxnb0MDoWB0_-78" value="数据验证" style="rounded=1;whiteSpace=wrap;html=1;glass=0;fontSize=18;fontStyle=1;strokeColor=none;fontColor=#FFFFFF;fillColor=#378F99;" parent="1" vertex="1">
          <mxGeometry x="1234.5" y="326.5" width="200" height="65" as="geometry" />
        </mxCell>
        <mxCell id="PtlmvL8tsxnb0MDoWB0_-79" value="队列处理" style="rounded=1;whiteSpace=wrap;html=1;glass=0;fontSize=18;fontStyle=1;strokeColor=none;fontColor=#FFFFFF;fillColor=#378F99;" parent="1" vertex="1">
          <mxGeometry x="1234.5" y="429.5" width="200" height="65" as="geometry" />
        </mxCell>
        <mxCell id="PtlmvL8tsxnb0MDoWB0_-80" value="异常处理" style="rounded=1;whiteSpace=wrap;html=1;glass=0;fontSize=18;fontStyle=1;strokeColor=none;fontColor=#FFFFFF;fillColor=#378F99;" parent="1" vertex="1">
          <mxGeometry x="1234.5" y="532.5" width="200" height="65" as="geometry" />
        </mxCell>
        <mxCell id="PtlmvL8tsxnb0MDoWB0_-81" value="事务处理" style="rounded=1;whiteSpace=wrap;html=1;glass=0;fontSize=18;fontStyle=1;strokeColor=none;fontColor=#FFFFFF;fillColor=#378F99;" parent="1" vertex="1">
          <mxGeometry x="1234.5" y="636.5" width="200" height="65" as="geometry" />
        </mxCell>
        <mxCell id="PtlmvL8tsxnb0MDoWB0_-82" value="服务治理" style="rounded=1;whiteSpace=wrap;html=1;glass=0;fontSize=18;fontStyle=1;strokeColor=none;fontColor=#FFFFFF;fillColor=#378F99;" parent="1" vertex="1">
          <mxGeometry x="1234.5" y="739.5" width="200" height="65" as="geometry" />
        </mxCell>
        <mxCell id="PtlmvL8tsxnb0MDoWB0_-83" value="缓存处理" style="rounded=1;whiteSpace=wrap;html=1;glass=0;fontSize=18;fontStyle=1;strokeColor=none;fontColor=#FFFFFF;fillColor=#378F99;" parent="1" vertex="1">
          <mxGeometry x="1234.5" y="842.5" width="200" height="65" as="geometry" />
        </mxCell>
        <mxCell id="PtlmvL8tsxnb0MDoWB0_-84" value="日志审计" style="rounded=1;whiteSpace=wrap;html=1;glass=0;fontSize=18;fontStyle=1;strokeColor=none;fontColor=#FFFFFF;fillColor=#378F99;" parent="1" vertex="1">
          <mxGeometry x="1234.5" y="946.5" width="200" height="65" as="geometry" />
        </mxCell>
        <mxCell id="PtlmvL8tsxnb0MDoWB0_-85" value="集群服务" style="rounded=1;whiteSpace=wrap;html=1;glass=0;fontSize=18;fontStyle=1;strokeColor=none;fontColor=#FFFFFF;fillColor=#378F99;" parent="1" vertex="1">
          <mxGeometry x="1234.5" y="1049.5" width="200" height="65" as="geometry" />
        </mxCell>
        <mxCell id="Kit9_HDKUx18gntkOTAz-5" value="通&lt;br&gt;讯&lt;br&gt;层" style="rounded=1;whiteSpace=wrap;html=1;shadow=0;glass=0;dashed=1;labelBackgroundColor=#FFFFFF;sketch=0;strokeWidth=3;fontSize=32;fillColor=none;fontStyle=1;strokeColor=#FF0080;" parent="1" vertex="1">
          <mxGeometry x="90" y="278" width="80" height="142" as="geometry" />
        </mxCell>
        <mxCell id="Kit9_HDKUx18gntkOTAz-6" value="服&lt;br&gt;务&lt;br&gt;层" style="rounded=1;whiteSpace=wrap;html=1;shadow=0;glass=0;dashed=1;labelBackgroundColor=#FFFFFF;sketch=0;strokeWidth=3;fontSize=32;fillColor=none;fontStyle=1;strokeColor=#0000FF;" parent="1" vertex="1">
          <mxGeometry x="90" y="450" width="80" height="480" as="geometry" />
        </mxCell>
        <mxCell id="Kit9_HDKUx18gntkOTAz-7" value="数&lt;br&gt;据&lt;br&gt;层" style="rounded=1;whiteSpace=wrap;html=1;shadow=0;glass=0;dashed=1;labelBackgroundColor=#FFFFFF;sketch=0;strokeWidth=3;fontSize=32;fillColor=none;fontStyle=1;strokeColor=#CC6600;" parent="1" vertex="1">
          <mxGeometry x="90" y="960" width="80" height="190" as="geometry" />
        </mxCell>
        <mxCell id="2Ki1XFiH7B0ep-b-Lst2-3" value="&lt;span style=&quot;color: rgb(35 , 47 , 62) ; font-size: 20px ; font-weight: 700 ; background-color: rgb(248 , 249 , 250)&quot;&gt;ElasticSearch&lt;/span&gt;" style="shape=image;html=1;verticalAlign=top;verticalLabelPosition=bottom;labelBackgroundColor=#ffffff;imageAspect=0;aspect=fixed;image=https://cdn4.iconfinder.com/data/icons/logos-brands-5/24/elasticsearch-128.png;sketch=0;" vertex="1" parent="1">
          <mxGeometry x="1015" y="1000" width="100" height="100" as="geometry" />
        </mxCell>
      </root>
    </mxGraphModel>
  </diagram>
</mxfile>
